<svg width="111" height="28" viewBox="0 0 111 28" fill="none" xmlns="http://www.w3.org/2000/svg">
<path d="M21.6691 13.3989C21.6691 14.0434 21.4679 14.672 21.0931 15.1978C20.7184 15.7236 20.1886 16.1206 19.5772 16.3339C19.4125 16.3687 19.2491 16.4117 19.0876 16.4604C17.9686 16.8074 16.9827 17.4859 16.2618 18.4051C15.5408 19.3243 15.1192 20.4406 15.0532 21.6046C15.0404 21.8405 15.0419 22.0771 15.0576 22.3129C14.997 22.8681 14.7871 23.3969 14.4499 23.8436C14.1128 24.2903 13.661 24.6385 13.1419 24.8515C12.6228 25.0645 12.0556 25.1345 11.4999 25.0542C10.9441 24.9738 10.4204 24.7461 9.98379 24.3949C9.54712 24.0437 9.21362 23.5821 9.01831 23.0584C8.823 22.5347 8.7731 21.9684 8.87386 21.4189C8.97461 20.8695 9.2223 20.3571 9.59089 19.9358C9.95949 19.5144 10.4354 19.1995 10.9686 19.0243C11.0898 18.9969 11.2106 18.965 11.331 18.9288C12.485 18.5838 13.5008 17.8871 14.2353 16.937C14.9698 15.9869 15.3858 14.8314 15.4245 13.6335C15.4292 13.488 15.4292 13.3426 15.4245 13.1971C15.3719 12.0196 14.9551 10.8869 14.2309 9.95383C13.5068 9.02078 12.5107 8.33285 11.3787 7.98405C11.2356 7.93915 11.0907 7.9012 10.945 7.86895C10.4128 7.68581 9.94015 7.36307 9.57708 6.93482C9.214 6.50657 8.97398 5.98873 8.88237 5.436C8.79075 4.88328 8.85096 4.3162 9.05661 3.7947C9.26227 3.2732 9.60574 2.81664 10.0507 2.47326C10.4957 2.12988 11.0257 1.91244 11.5847 1.84391C12.1437 1.77539 12.7109 1.85832 13.2264 2.08395C13.7419 2.30957 14.1865 2.66952 14.5134 3.12574C14.8402 3.58197 15.037 4.11753 15.0831 4.67584C15.0774 4.83268 15.0786 4.99205 15.0831 5.14699C15.1409 6.32827 15.565 7.46277 16.2972 8.39463C17.0293 9.32648 18.0337 10.01 19.1722 10.3512C19.2862 10.3854 19.4006 10.4155 19.5155 10.4416C20.142 10.646 20.6875 11.0419 21.0743 11.573C21.461 12.1041 21.6692 12.7431 21.6691 13.3989Z" fill="white"/>
<path d="M0.181601 21.3212C0.223414 20.679 0.464406 20.0654 0.871388 19.565C1.27837 19.0646 1.83132 18.702 2.45409 18.5272C2.62364 18.5032 2.79066 18.4711 2.95513 18.4311C4.21316 18.1281 5.33177 17.4121 6.13027 16.3989C6.92876 15.3856 7.36051 14.1342 7.35576 12.8468C7.45211 12.2967 7.69557 11.7826 8.06057 11.3585C8.42558 10.9343 8.89866 10.6157 9.43015 10.4362C9.96165 10.2566 10.532 10.2226 11.0812 10.3379C11.6304 10.4531 12.1383 10.7133 12.5516 11.0912C12.9648 11.469 13.2682 11.9506 13.4298 12.4852C13.5914 13.0199 13.6053 13.588 13.4701 14.1298C13.3348 14.6717 13.0554 15.1674 12.6611 15.5647C12.2668 15.9621 11.7722 16.2466 11.2293 16.3883C11.1021 16.4086 10.976 16.4332 10.851 16.4623C9.67723 16.7341 8.61892 17.3656 7.82536 18.2677C7.0318 19.1698 6.54305 20.2969 6.42807 21.4901C6.41408 21.6305 6.40646 21.7715 6.40328 21.9126C6.34642 22.3541 6.19499 22.7783 5.9592 23.1567C5.7234 23.535 5.40874 23.8586 5.03645 24.1057C4.66417 24.3527 4.24292 24.5174 3.80116 24.5887C3.3594 24.6599 2.90741 24.6361 2.4757 24.5188C2.36443 24.477 2.25253 24.4391 2.13871 24.4056C1.52756 24.1619 1.00934 23.7325 0.657918 23.1787C0.306497 22.6248 0.139805 21.9748 0.181601 21.3212Z" fill="white"/>
<path d="M33.5718 9.90394C34.9317 9.90394 35.9894 10.3967 36.7449 11.3821C37.507 12.3675 37.888 13.7504 37.888 15.5308C37.888 17.3177 37.5037 18.7105 36.7351 19.7091C35.9664 20.7011 34.8988 21.1971 33.5324 21.1971C32.1528 21.1971 31.0819 20.7011 30.3198 19.7091H30.1622L29.7384 21H28.0041V5.66655H30.3198V9.31268C30.3198 9.58203 30.3067 9.98278 30.2804 10.5149C30.2541 11.0471 30.2344 11.3854 30.2213 11.5299H30.3198C31.0556 10.4459 32.1396 9.90394 33.5718 9.90394ZM32.9707 11.796C32.0378 11.796 31.3644 12.0719 30.9505 12.6238C30.5432 13.169 30.333 14.0855 30.3198 15.3731V15.5308C30.3198 16.8579 30.5301 17.8203 30.9505 18.4181C31.371 19.0094 32.0575 19.305 33.0101 19.305C33.8313 19.305 34.4521 18.9798 34.8726 18.3295C35.2996 17.6791 35.5131 16.7396 35.5131 15.5111C35.5131 13.0344 34.6656 11.796 32.9707 11.796ZM42.8941 21H40.5783V5.66655H42.8941V21ZM48.5308 21H46.215V10.101H48.5308V21ZM46.077 7.21369C46.077 6.7998 46.1887 6.48118 46.4121 6.25781C46.642 6.03445 46.9672 5.92276 47.3877 5.92276C47.795 5.92276 48.1103 6.03445 48.3337 6.25781C48.5636 6.48118 48.6786 6.7998 48.6786 7.21369C48.6786 7.60787 48.5636 7.91992 48.3337 8.14986C48.1103 8.37322 47.795 8.48491 47.3877 8.48491C46.9672 8.48491 46.642 8.37322 46.4121 8.14986C46.1887 7.91992 46.077 7.60787 46.077 7.21369ZM61.44 21H59.1144V14.299C59.1144 13.4581 58.9436 12.8307 58.602 12.4168C58.2669 12.0029 57.7315 11.796 56.9957 11.796C56.0168 11.796 55.3007 12.085 54.8474 12.6632C54.3941 13.2413 54.1675 14.2103 54.1675 15.5702V21H51.8517V10.101H53.6649L53.9901 11.5299H54.1084C54.4368 11.0109 54.9033 10.6102 55.5077 10.3277C56.1121 10.0452 56.7822 9.90394 57.518 9.90394C60.1327 9.90394 61.44 11.2343 61.44 13.895V21ZM68.9787 19.3445C69.951 19.3445 70.6473 19.0653 71.0678 18.5068C71.4948 17.9419 71.7083 17.0911 71.7083 15.9545V15.5899C71.7083 14.2432 71.4882 13.2741 71.0481 12.6829C70.6145 12.0916 69.9115 11.796 68.9392 11.796C68.1115 11.796 67.4808 12.1245 67.0472 12.7814C66.6136 13.4384 66.3968 14.3811 66.3968 15.6096C66.3968 18.0995 67.2574 19.3445 68.9787 19.3445ZM68.3184 21.1971C66.9716 21.1971 65.9172 20.7044 65.1551 19.7189C64.3931 18.7269 64.012 17.344 64.012 15.5702C64.012 13.7964 64.3996 12.4102 65.1749 11.4117C65.9501 10.4065 67.0176 9.90394 68.3775 9.90394C69.0608 9.90394 69.6718 10.032 70.2105 10.2883C70.7557 10.5379 71.2419 10.9518 71.6689 11.5299H71.7477L72.004 10.101H73.9256V25.8484H71.5999V21.2267C71.5999 20.9376 71.6131 20.6321 71.6393 20.3102C71.6656 19.9883 71.6886 19.7419 71.7083 19.5711H71.5802C70.897 20.6551 69.8097 21.1971 68.3184 21.1971ZM82.765 21.1971C81.3854 21.1971 80.3145 20.7011 79.5524 19.7091H79.4145C79.5064 20.6288 79.5524 21.1872 79.5524 21.3843V25.8484H77.2366V10.101H79.109C79.1615 10.3047 79.2699 10.7908 79.4342 11.5595H79.5524C80.2751 10.4558 81.3591 9.90394 82.8044 9.90394C84.1643 9.90394 85.222 10.3967 85.9775 11.3821C86.7396 12.3675 87.1206 13.7504 87.1206 15.5308C87.1206 17.3112 86.733 18.7006 85.9578 19.6992C85.1892 20.6978 84.1249 21.1971 82.765 21.1971ZM82.2033 11.796C81.2835 11.796 80.6101 12.0653 80.1831 12.604C79.7627 13.1428 79.5524 14.0034 79.5524 15.1859V15.5308C79.5524 16.8579 79.7627 17.8203 80.1831 18.4181C80.6036 19.0094 81.2901 19.305 82.2427 19.305C83.0442 19.305 83.6617 18.9766 84.0953 18.3196C84.5289 17.6626 84.7457 16.7265 84.7457 15.5111C84.7457 14.2892 84.5289 13.3661 84.0953 12.742C83.6683 12.1113 83.0376 11.796 82.2033 11.796ZM96.6301 21L96.167 19.4824H96.0881C95.5626 20.146 95.0337 20.5993 94.5016 20.8423C93.9694 21.0788 93.2862 21.1971 92.4518 21.1971C91.381 21.1971 90.5434 20.908 89.939 20.3299C89.3411 19.7518 89.0422 18.9339 89.0422 17.8762C89.0422 16.7528 89.4594 15.9053 90.2937 15.3337C91.1281 14.7622 92.3993 14.4501 94.1074 14.3975L95.9896 14.3384V13.757C95.9896 13.0606 95.8253 12.5416 95.4969 12.2C95.1749 11.8518 94.6724 11.6777 93.9891 11.6777C93.4307 11.6777 92.8953 11.7599 92.3829 11.9241C91.8704 12.0883 91.3777 12.2821 90.9047 12.5055L90.1558 10.85C90.747 10.5412 91.3941 10.308 92.0971 10.1503C92.8 9.98606 93.4636 9.90394 94.0877 9.90394C95.4739 9.90394 96.5184 10.2061 97.2214 10.8105C97.9309 11.415 98.2857 12.3643 98.2857 13.6585V21H96.6301ZM93.1811 19.4233C94.022 19.4233 94.6954 19.1901 95.2012 18.7236C95.7137 18.2506 95.9699 17.5904 95.9699 16.7429V15.7969L94.5705 15.856C93.48 15.8954 92.6851 16.0794 92.1858 16.4078C91.6931 16.7298 91.4467 17.2258 91.4467 17.8959C91.4467 18.382 91.5912 18.7598 91.8803 19.0291C92.1694 19.2919 92.6029 19.4233 93.1811 19.4233ZM99.8624 10.101H102.385L104.602 16.2797C104.937 17.1601 105.161 17.9878 105.272 18.7631H105.351C105.41 18.4017 105.519 17.9648 105.676 17.4524C105.834 16.9334 106.668 14.483 108.179 10.101H110.682L106.021 22.4486C105.174 24.7151 103.761 25.8484 101.784 25.8484C101.272 25.8484 100.772 25.7925 100.286 25.6808V23.8479C100.634 23.9268 101.032 23.9662 101.478 23.9662C102.595 23.9662 103.38 23.3191 103.834 22.0249L104.238 21L99.8624 10.101Z" fill="white"/>
</svg>
